<mxfile host="app.diagrams.net" agent="Mozilla/5.0 (Windows NT 10.0; Win64; x64) AppleWebKit/537.36 (KHTML, like Gecko) Chrome/116.0.0.0 Safari/537.36" version="26.0.16">
  <diagram name="第 1 页" id="SSLs9a8aK7hEzwHF-V_V">
    <mxGraphModel dx="842" dy="457" grid="1" gridSize="10" guides="0" tooltips="1" connect="1" arrows="1" fold="1" page="1" pageScale="1" pageWidth="827" pageHeight="1169" math="1" shadow="0">
      <root>
        <mxCell id="0" />
        <mxCell id="1" parent="0" />
        <mxCell id="NSVF5rRADlhFA87VCiKn-22" value="" style="rounded=1;whiteSpace=wrap;html=1;strokeWidth=1;fontFamily=Times New Roman;fillColor=#CCE5FF;dashed=1;strokeColor=#66B2FF;" parent="1" vertex="1">
          <mxGeometry x="305.5" y="160" width="377.62" height="140" as="geometry" />
        </mxCell>
        <mxCell id="NSVF5rRADlhFA87VCiKn-32" value="" style="rounded=1;whiteSpace=wrap;html=1;strokeWidth=1;fontFamily=Times New Roman;fillColor=#FFE6CC;dashed=1;fontColor=#FFE6CC;strokeColor=#FFB366;" parent="1" vertex="1">
          <mxGeometry x="484.67999999999995" y="206.06" width="190.13" height="71.25" as="geometry" />
        </mxCell>
        <mxCell id="NSVF5rRADlhFA87VCiKn-35" value="" style="edgeStyle=orthogonalEdgeStyle;rounded=0;orthogonalLoop=1;jettySize=auto;html=1;exitX=1;exitY=0.5;exitDx=0;exitDy=0;" parent="1" source="NSVF5rRADlhFA87VCiKn-26" target="NSVF5rRADlhFA87VCiKn-22" edge="1">
          <mxGeometry relative="1" as="geometry">
            <mxPoint x="281.75" y="219.3809523809523" as="sourcePoint" />
            <Array as="points">
              <mxPoint x="300.5" y="230" />
              <mxPoint x="300.5" y="230" />
            </Array>
          </mxGeometry>
        </mxCell>
        <mxCell id="NSVF5rRADlhFA87VCiKn-26" value="" style="rounded=1;whiteSpace=wrap;html=1;strokeWidth=1;fontFamily=Times New Roman;fillColor=#FFCCCC;dashed=1;strokeColor=#FF6666;" parent="1" vertex="1">
          <mxGeometry x="149.25" y="160" width="132.5" height="138.75" as="geometry" />
        </mxCell>
        <mxCell id="sfnMSoEM-NCYtmPpQdEC-3" value="$$\mathbb{P}$$" style="text;html=1;strokeColor=none;fillColor=none;align=center;verticalAlign=middle;whiteSpace=wrap;rounded=0;" parent="1" vertex="1">
          <mxGeometry x="248" y="167.65000000000003" width="20" height="20" as="geometry" />
        </mxCell>
        <mxCell id="sfnMSoEM-NCYtmPpQdEC-5" value="$$\tilde{\mathbb{P}}$$" style="text;html=1;strokeColor=none;fillColor=none;align=center;verticalAlign=middle;whiteSpace=wrap;rounded=0;" parent="1" vertex="1">
          <mxGeometry x="256.75" y="207.34000000000003" width="20" height="20" as="geometry" />
        </mxCell>
        <mxCell id="NSVF5rRADlhFA87VCiKn-19" style="edgeStyle=orthogonalEdgeStyle;rounded=0;orthogonalLoop=1;jettySize=auto;html=1;entryX=0.5;entryY=0;entryDx=0;entryDy=0;" parent="1" source="sfnMSoEM-NCYtmPpQdEC-8" target="NSVF5rRADlhFA87VCiKn-2" edge="1">
          <mxGeometry relative="1" as="geometry" />
        </mxCell>
        <mxCell id="sfnMSoEM-NCYtmPpQdEC-8" value="&lt;p style=&quot;line-height: 0%;&quot;&gt;&lt;font face=&quot;Times New Roman&quot; style=&quot;font-size: 11px;&quot;&gt;Relax in real domain&lt;/font&gt;&lt;/p&gt;" style="text;html=1;strokeColor=none;fillColor=none;align=center;verticalAlign=middle;whiteSpace=wrap;rounded=0;fontSize=7;" parent="1" vertex="1">
          <mxGeometry x="150.5" y="207.34000000000003" width="115" height="20" as="geometry" />
        </mxCell>
        <mxCell id="sfnMSoEM-NCYtmPpQdEC-17" value="$$\mathbb{P}_c$$" style="text;html=1;strokeColor=none;fillColor=none;align=center;verticalAlign=middle;whiteSpace=wrap;rounded=0;" parent="1" vertex="1">
          <mxGeometry x="245.5" y="250.94000000000017" width="20" height="20" as="geometry" />
        </mxCell>
        <mxCell id="sfnMSoEM-NCYtmPpQdEC-21" value="$$\tilde{\alpha}_{t+1}$$" style="text;html=1;strokeColor=none;fillColor=none;align=center;verticalAlign=middle;whiteSpace=wrap;rounded=0;" parent="1" vertex="1">
          <mxGeometry x="380.5" y="237.81000000000006" width="30" height="20" as="geometry" />
        </mxCell>
        <mxCell id="sfnMSoEM-NCYtmPpQdEC-22" value="&lt;p style=&quot;line-height: 0%;&quot;&gt;&lt;font face=&quot;Times New Roman&quot; style=&quot;font-size: 11px;&quot;&gt;Update&lt;/font&gt;&lt;/p&gt;" style="text;html=1;strokeColor=none;fillColor=none;align=center;verticalAlign=middle;whiteSpace=wrap;rounded=0;fontSize=7;" parent="1" vertex="1">
          <mxGeometry x="335.5" y="232.81000000000006" width="45" height="30" as="geometry" />
        </mxCell>
        <mxCell id="sfnMSoEM-NCYtmPpQdEC-39" value="$$\lambda_{t+1}$$" style="text;html=1;strokeColor=none;fillColor=none;align=center;verticalAlign=middle;whiteSpace=wrap;rounded=0;fontSize=11;fontFamily=Times New Roman;" parent="1" vertex="1">
          <mxGeometry x="380.5" y="178.2899999999999" width="30" height="20" as="geometry" />
        </mxCell>
        <mxCell id="sfnMSoEM-NCYtmPpQdEC-41" value="Dual Ascent&amp;nbsp; Step" style="text;html=1;strokeColor=none;fillColor=none;align=center;verticalAlign=middle;whiteSpace=wrap;rounded=0;fontSize=11;fontFamily=Times New Roman;" parent="1" vertex="1">
          <mxGeometry x="324.5" y="224.54000000000008" width="100" height="20" as="geometry" />
        </mxCell>
        <mxCell id="NSVF5rRADlhFA87VCiKn-15" style="edgeStyle=orthogonalEdgeStyle;rounded=0;orthogonalLoop=1;jettySize=auto;html=1;" parent="1" source="Pp01OgDB8cOK3t0NA6hv-5" edge="1">
          <mxGeometry relative="1" as="geometry">
            <mxPoint x="208" y="211.5300000000001" as="targetPoint" />
          </mxGeometry>
        </mxCell>
        <mxCell id="Pp01OgDB8cOK3t0NA6hv-5" value="Original Problem" style="text;html=1;strokeColor=none;fillColor=none;align=center;verticalAlign=middle;whiteSpace=wrap;rounded=0;fontFamily=Times New Roman;" parent="1" vertex="1">
          <mxGeometry x="143" y="162.97000000000003" width="130" height="28.12" as="geometry" />
        </mxCell>
        <mxCell id="Pp01OgDB8cOK3t0NA6hv-11" value="Model Selection" style="text;html=1;strokeColor=none;fillColor=none;align=center;verticalAlign=middle;whiteSpace=wrap;rounded=0;fontSize=11;fontFamily=Times New Roman;" parent="1" vertex="1">
          <mxGeometry x="522.05" y="235.92000000000007" width="110" height="20" as="geometry" />
        </mxCell>
        <mxCell id="NSVF5rRADlhFA87VCiKn-45" style="edgeStyle=orthogonalEdgeStyle;rounded=0;orthogonalLoop=1;jettySize=auto;html=1;entryX=0.917;entryY=0.938;entryDx=0;entryDy=0;entryPerimeter=0;exitX=0.5;exitY=0;exitDx=0;exitDy=0;" parent="1" source="NSVF5rRADlhFA87VCiKn-32" target="Pp01OgDB8cOK3t0NA6hv-48" edge="1">
          <mxGeometry relative="1" as="geometry">
            <mxPoint x="582.5" y="207.81" as="sourcePoint" />
            <Array as="points">
              <mxPoint x="579.5" y="181.81" />
            </Array>
          </mxGeometry>
        </mxCell>
        <mxCell id="Pp01OgDB8cOK3t0NA6hv-12" value="Training Workload" style="text;html=1;strokeColor=none;fillColor=none;align=center;verticalAlign=middle;whiteSpace=wrap;rounded=0;fontSize=11;fontFamily=Times New Roman;" parent="1" vertex="1">
          <mxGeometry x="532.05" y="210.79000000000002" width="100" height="15" as="geometry" />
        </mxCell>
        <mxCell id="Pp01OgDB8cOK3t0NA6hv-15" value="$$\tilde{\mathbf{x}}_{t}$$" style="text;html=1;strokeColor=none;fillColor=none;align=center;verticalAlign=middle;whiteSpace=wrap;rounded=0;fontFamily=Times New Roman;" parent="1" vertex="1">
          <mxGeometry x="628.18" y="209.04000000000002" width="20" height="16.25" as="geometry" />
        </mxCell>
        <mxCell id="Pp01OgDB8cOK3t0NA6hv-17" value="$$\mathbf{y}_{t}$$" style="text;html=1;strokeColor=none;fillColor=none;align=center;verticalAlign=middle;whiteSpace=wrap;rounded=0;fontFamily=Times New Roman;" parent="1" vertex="1">
          <mxGeometry x="613.18" y="237.17000000000007" width="25" height="17.5" as="geometry" />
        </mxCell>
        <mxCell id="Pp01OgDB8cOK3t0NA6hv-18" style="edgeStyle=orthogonalEdgeStyle;rounded=0;orthogonalLoop=1;jettySize=auto;html=1;exitX=0.5;exitY=1;exitDx=0;exitDy=0;fontFamily=Times New Roman;" parent="1" source="Pp01OgDB8cOK3t0NA6hv-17" target="Pp01OgDB8cOK3t0NA6hv-17" edge="1">
          <mxGeometry relative="1" as="geometry" />
        </mxCell>
        <mxCell id="Pp01OgDB8cOK3t0NA6hv-25" value="$${\alpha}_{t}$$" style="text;html=1;strokeColor=none;fillColor=none;align=center;verticalAlign=middle;whiteSpace=wrap;rounded=0;" parent="1" vertex="1">
          <mxGeometry x="494.67999999999995" y="222.63" width="21.75" height="17.5" as="geometry" />
        </mxCell>
        <mxCell id="Pp01OgDB8cOK3t0NA6hv-48" value="&lt;p style=&quot;line-height: 0%;&quot;&gt;&lt;font style=&quot;font-size: 12px;&quot; face=&quot;Times New Roman&quot;&gt;Modified Descent Step&lt;/font&gt;&lt;br&gt;&lt;/p&gt;" style="text;html=1;strokeColor=none;fillColor=none;align=center;verticalAlign=middle;whiteSpace=wrap;rounded=0;fontSize=7;" parent="1" vertex="1">
          <mxGeometry x="305.5" y="162.96999999999997" width="140" height="20" as="geometry" />
        </mxCell>
        <mxCell id="dqOILAj7h7sax7pHXJvT-29" value="&lt;b&gt;&lt;font&gt;Online Learning Module&lt;/font&gt;&lt;/b&gt;" style="text;html=1;strokeColor=none;fillColor=none;align=center;verticalAlign=middle;whiteSpace=wrap;rounded=0;fontColor=#000033;" parent="1" vertex="1">
          <mxGeometry x="410.5" y="273.08000000000004" width="145" height="30" as="geometry" />
        </mxCell>
        <mxCell id="NSVF5rRADlhFA87VCiKn-2" value="&lt;p style=&quot;line-height: 0%;&quot;&gt;&lt;font face=&quot;Times New Roman&quot; style=&quot;font-size: 11px;&quot;&gt;Lagrange-dual&lt;/font&gt;&lt;/p&gt;" style="text;html=1;strokeColor=none;fillColor=none;align=center;verticalAlign=middle;whiteSpace=wrap;rounded=0;fontSize=7;" parent="1" vertex="1">
          <mxGeometry x="143" y="250.0000000000001" width="130" height="20" as="geometry" />
        </mxCell>
        <mxCell id="NSVF5rRADlhFA87VCiKn-9" value="&lt;p style=&quot;line-height: 0%;&quot;&gt;&lt;font face=&quot;Times New Roman&quot; style=&quot;font-size: 11px;&quot;&gt;Update&lt;/font&gt;&lt;/p&gt;" style="text;html=1;strokeColor=none;fillColor=none;align=center;verticalAlign=middle;whiteSpace=wrap;rounded=0;fontSize=7;" parent="1" vertex="1">
          <mxGeometry x="335.5" y="173.2899999999999" width="45" height="30" as="geometry" />
        </mxCell>
        <mxCell id="NSVF5rRADlhFA87VCiKn-33" style="edgeStyle=orthogonalEdgeStyle;rounded=0;orthogonalLoop=1;jettySize=auto;html=1;entryX=0;entryY=0.5;entryDx=0;entryDy=0;" parent="1" source="NSVF5rRADlhFA87VCiKn-20" target="NSVF5rRADlhFA87VCiKn-32" edge="1">
          <mxGeometry relative="1" as="geometry">
            <mxPoint x="458" y="225.93999999999994" as="targetPoint" />
            <Array as="points">
              <mxPoint x="460.5" y="241.81000000000006" />
              <mxPoint x="460.5" y="241.81000000000006" />
            </Array>
          </mxGeometry>
        </mxCell>
        <mxCell id="NSVF5rRADlhFA87VCiKn-20" value="" style="rounded=1;whiteSpace=wrap;html=1;strokeWidth=1;fontFamily=Times New Roman;fillColor=none;" parent="1" vertex="1">
          <mxGeometry x="320.5" y="225.79000000000008" width="110" height="52.02" as="geometry" />
        </mxCell>
        <mxCell id="NSVF5rRADlhFA87VCiKn-37" value="" style="edgeStyle=orthogonalEdgeStyle;rounded=0;orthogonalLoop=1;jettySize=auto;html=1;" parent="1" source="NSVF5rRADlhFA87VCiKn-21" target="NSVF5rRADlhFA87VCiKn-20" edge="1">
          <mxGeometry relative="1" as="geometry" />
        </mxCell>
        <mxCell id="NSVF5rRADlhFA87VCiKn-21" value="" style="rounded=1;whiteSpace=wrap;html=1;strokeWidth=1;fontFamily=Times New Roman;fillColor=none;" parent="1" vertex="1">
          <mxGeometry x="318" y="164.21999999999997" width="115" height="33.44" as="geometry" />
        </mxCell>
        <mxCell id="NSVF5rRADlhFA87VCiKn-24" value="&lt;b&gt;Reformulation&lt;/b&gt;" style="text;html=1;strokeColor=none;fillColor=none;align=center;verticalAlign=middle;whiteSpace=wrap;rounded=0;fontColor=#000033;" parent="1" vertex="1">
          <mxGeometry x="143" y="269.37" width="145" height="30" as="geometry" />
        </mxCell>
        <mxCell id="NSVF5rRADlhFA87VCiKn-28" value="" style="shape=curlyBracket;whiteSpace=wrap;html=1;rounded=1;labelPosition=left;verticalLabelPosition=middle;align=right;verticalAlign=middle;size=0.5;" parent="1" vertex="1">
          <mxGeometry x="516.43" y="219.19000000000005" width="15.62" height="27.03" as="geometry" />
        </mxCell>
        <mxCell id="NSVF5rRADlhFA87VCiKn-34" value="&lt;b&gt;&lt;font&gt;Randomized&amp;nbsp;&amp;nbsp;&lt;/font&gt;&lt;/b&gt;&lt;font&gt;&lt;b&gt;Rounding Module&lt;/b&gt;&lt;/font&gt;" style="text;html=1;strokeColor=none;fillColor=none;align=center;verticalAlign=middle;whiteSpace=wrap;rounded=0;fontColor=#000033;" parent="1" vertex="1">
          <mxGeometry x="476.37" y="247.81000000000006" width="206.75" height="30" as="geometry" />
        </mxCell>
        <mxCell id="NSVF5rRADlhFA87VCiKn-40" value="Previous Information" style="text;html=1;strokeColor=none;fillColor=none;align=center;verticalAlign=middle;whiteSpace=wrap;rounded=0;fontSize=11;fontFamily=Times New Roman;" parent="1" vertex="1">
          <mxGeometry x="442.55" y="180.46999999999997" width="126" height="15" as="geometry" />
        </mxCell>
        <mxCell id="NSVF5rRADlhFA87VCiKn-42" value="Rounding" style="text;html=1;strokeColor=none;fillColor=none;align=center;verticalAlign=middle;whiteSpace=wrap;rounded=0;fontSize=11;fontFamily=Times New Roman;" parent="1" vertex="1">
          <mxGeometry x="396.05" y="220.92000000000007" width="126" height="15" as="geometry" />
        </mxCell>
        <mxCell id="NSVF5rRADlhFA87VCiKn-43" value="Fractional Decisions" style="text;html=1;strokeColor=none;fillColor=none;align=center;verticalAlign=middle;whiteSpace=wrap;rounded=0;fontSize=11;fontFamily=Times New Roman;" parent="1" vertex="1">
          <mxGeometry x="312.5" y="254.81000000000006" width="126" height="15" as="geometry" />
        </mxCell>
        <mxCell id="NSVF5rRADlhFA87VCiKn-46" value="Learning From" style="text;html=1;strokeColor=none;fillColor=none;align=center;verticalAlign=middle;whiteSpace=wrap;rounded=0;fontSize=11;fontFamily=Times New Roman;" parent="1" vertex="1">
          <mxGeometry x="442.55" y="165.46999999999997" width="126" height="15" as="geometry" />
        </mxCell>
        <mxCell id="pxTEWj7LgMfRWPrPXoyE-1" value="" style="rounded=1;whiteSpace=wrap;html=1;strokeWidth=1;fontFamily=Times New Roman;fillColor=#CCE5FF;dashed=1;strokeColor=#66B2FF;" parent="1" vertex="1">
          <mxGeometry x="310.18" y="350" width="377.62" height="180" as="geometry" />
        </mxCell>
        <mxCell id="pxTEWj7LgMfRWPrPXoyE-38" style="edgeStyle=orthogonalEdgeStyle;rounded=0;orthogonalLoop=1;jettySize=auto;html=1;entryX=0.5;entryY=1;entryDx=0;entryDy=0;" parent="1" source="pxTEWj7LgMfRWPrPXoyE-2" target="pxTEWj7LgMfRWPrPXoyE-30" edge="1">
          <mxGeometry relative="1" as="geometry" />
        </mxCell>
        <mxCell id="pxTEWj7LgMfRWPrPXoyE-2" value="" style="rounded=1;whiteSpace=wrap;html=1;strokeWidth=1;fontFamily=Times New Roman;fillColor=#FFE6CC;dashed=1;fontColor=#FFE6CC;strokeColor=#FFB366;" parent="1" vertex="1">
          <mxGeometry x="318.47999999999996" y="429.24" width="190.13" height="71.25" as="geometry" />
        </mxCell>
        <mxCell id="pxTEWj7LgMfRWPrPXoyE-47" style="edgeStyle=orthogonalEdgeStyle;rounded=0;orthogonalLoop=1;jettySize=auto;html=1;" parent="1" source="pxTEWj7LgMfRWPrPXoyE-4" edge="1">
          <mxGeometry relative="1" as="geometry">
            <mxPoint x="310" y="440" as="targetPoint" />
          </mxGeometry>
        </mxCell>
        <mxCell id="pxTEWj7LgMfRWPrPXoyE-4" value="" style="rounded=1;whiteSpace=wrap;html=1;strokeWidth=1;fontFamily=Times New Roman;fillColor=#FFCCCC;dashed=1;strokeColor=#FF6666;" parent="1" vertex="1">
          <mxGeometry x="151.5" y="350" width="132.5" height="180" as="geometry" />
        </mxCell>
        <mxCell id="pxTEWj7LgMfRWPrPXoyE-5" value="$$\mathbb{P}$$" style="text;html=1;strokeColor=none;fillColor=none;align=center;verticalAlign=middle;whiteSpace=wrap;rounded=0;" parent="1" vertex="1">
          <mxGeometry x="255.25" y="377.95" width="20" height="20" as="geometry" />
        </mxCell>
        <mxCell id="pxTEWj7LgMfRWPrPXoyE-6" value="$$\tilde{\mathbb{P}}$$" style="text;html=1;strokeColor=none;fillColor=none;align=center;verticalAlign=middle;whiteSpace=wrap;rounded=0;" parent="1" vertex="1">
          <mxGeometry x="264" y="417.64" width="20" height="20" as="geometry" />
        </mxCell>
        <mxCell id="pxTEWj7LgMfRWPrPXoyE-7" style="edgeStyle=orthogonalEdgeStyle;rounded=0;orthogonalLoop=1;jettySize=auto;html=1;entryX=0.5;entryY=0;entryDx=0;entryDy=0;" parent="1" source="pxTEWj7LgMfRWPrPXoyE-8" target="pxTEWj7LgMfRWPrPXoyE-25" edge="1">
          <mxGeometry relative="1" as="geometry" />
        </mxCell>
        <mxCell id="pxTEWj7LgMfRWPrPXoyE-8" value="&lt;p style=&quot;line-height: 0%;&quot;&gt;&lt;font face=&quot;Times New Roman&quot; style=&quot;font-size: 11px;&quot;&gt;Relax in real domain&lt;/font&gt;&lt;/p&gt;" style="text;html=1;strokeColor=none;fillColor=none;align=center;verticalAlign=middle;whiteSpace=wrap;rounded=0;fontSize=7;" parent="1" vertex="1">
          <mxGeometry x="157.75" y="417.64" width="115" height="20" as="geometry" />
        </mxCell>
        <mxCell id="pxTEWj7LgMfRWPrPXoyE-9" value="$$\mathbb{P}_c$$" style="text;html=1;strokeColor=none;fillColor=none;align=center;verticalAlign=middle;whiteSpace=wrap;rounded=0;" parent="1" vertex="1">
          <mxGeometry x="252.75" y="461.2400000000001" width="20" height="20" as="geometry" />
        </mxCell>
        <mxCell id="pxTEWj7LgMfRWPrPXoyE-10" value="$$\tilde{\alpha}_{t+1}$$" style="text;html=1;strokeColor=none;fillColor=none;align=center;verticalAlign=middle;whiteSpace=wrap;rounded=0;" parent="1" vertex="1">
          <mxGeometry x="504.81999999999994" y="366.23000000000013" width="30" height="20" as="geometry" />
        </mxCell>
        <mxCell id="pxTEWj7LgMfRWPrPXoyE-11" value="&lt;p style=&quot;line-height: 0%;&quot;&gt;&lt;font face=&quot;Times New Roman&quot; style=&quot;font-size: 11px;&quot;&gt;Update&lt;/font&gt;&lt;/p&gt;" style="text;html=1;strokeColor=none;fillColor=none;align=center;verticalAlign=middle;whiteSpace=wrap;rounded=0;fontSize=7;" parent="1" vertex="1">
          <mxGeometry x="459.81999999999994" y="361.23000000000013" width="45" height="30" as="geometry" />
        </mxCell>
        <mxCell id="pxTEWj7LgMfRWPrPXoyE-12" value="$$\lambda_{t+1}$$" style="text;html=1;strokeColor=none;fillColor=none;align=center;verticalAlign=middle;whiteSpace=wrap;rounded=0;fontSize=11;fontFamily=Times New Roman;" parent="1" vertex="1">
          <mxGeometry x="628.1800000000001" y="420.29999999999995" width="30" height="20" as="geometry" />
        </mxCell>
        <mxCell id="pxTEWj7LgMfRWPrPXoyE-13" value="Dual Ascent Step" style="text;html=1;strokeColor=none;fillColor=none;align=center;verticalAlign=middle;whiteSpace=wrap;rounded=0;fontSize=11;fontFamily=Times New Roman;" parent="1" vertex="1">
          <mxGeometry x="573.5500000000001" y="406.2300000000002" width="100" height="20" as="geometry" />
        </mxCell>
        <mxCell id="pxTEWj7LgMfRWPrPXoyE-14" style="edgeStyle=orthogonalEdgeStyle;rounded=0;orthogonalLoop=1;jettySize=auto;html=1;" parent="1" source="pxTEWj7LgMfRWPrPXoyE-15" edge="1">
          <mxGeometry relative="1" as="geometry">
            <mxPoint x="215.25" y="421.83000000000004" as="targetPoint" />
          </mxGeometry>
        </mxCell>
        <mxCell id="pxTEWj7LgMfRWPrPXoyE-15" value="Original Problem" style="text;html=1;strokeColor=none;fillColor=none;align=center;verticalAlign=middle;whiteSpace=wrap;rounded=0;fontFamily=Times New Roman;" parent="1" vertex="1">
          <mxGeometry x="150.25" y="373.27" width="130" height="28.12" as="geometry" />
        </mxCell>
        <mxCell id="pxTEWj7LgMfRWPrPXoyE-16" value="Model Selection" style="text;html=1;strokeColor=none;fillColor=none;align=center;verticalAlign=middle;whiteSpace=wrap;rounded=0;fontSize=11;fontFamily=Times New Roman;" parent="1" vertex="1">
          <mxGeometry x="355.85999999999996" y="458.60000000000014" width="110" height="20" as="geometry" />
        </mxCell>
        <mxCell id="pxTEWj7LgMfRWPrPXoyE-18" value="Training Workload" style="text;html=1;strokeColor=none;fillColor=none;align=center;verticalAlign=middle;whiteSpace=wrap;rounded=0;fontSize=11;fontFamily=Times New Roman;" parent="1" vertex="1">
          <mxGeometry x="365.85999999999996" y="433.47" width="100" height="15" as="geometry" />
        </mxCell>
        <mxCell id="pxTEWj7LgMfRWPrPXoyE-19" value="$$\tilde{\mathbf{x}}_{t}$$" style="text;html=1;strokeColor=none;fillColor=none;align=center;verticalAlign=middle;whiteSpace=wrap;rounded=0;fontFamily=Times New Roman;" parent="1" vertex="1">
          <mxGeometry x="457.5099999999999" y="431.71000000000004" width="20" height="16.25" as="geometry" />
        </mxCell>
        <mxCell id="pxTEWj7LgMfRWPrPXoyE-20" value="$$\mathbf{y}_{t}$$" style="text;html=1;strokeColor=none;fillColor=none;align=center;verticalAlign=middle;whiteSpace=wrap;rounded=0;fontFamily=Times New Roman;" parent="1" vertex="1">
          <mxGeometry x="446.98999999999995" y="459.85000000000014" width="25" height="17.5" as="geometry" />
        </mxCell>
        <mxCell id="pxTEWj7LgMfRWPrPXoyE-21" style="edgeStyle=orthogonalEdgeStyle;rounded=0;orthogonalLoop=1;jettySize=auto;html=1;exitX=0.5;exitY=1;exitDx=0;exitDy=0;fontFamily=Times New Roman;" parent="1" source="pxTEWj7LgMfRWPrPXoyE-20" target="pxTEWj7LgMfRWPrPXoyE-20" edge="1">
          <mxGeometry relative="1" as="geometry" />
        </mxCell>
        <mxCell id="pxTEWj7LgMfRWPrPXoyE-22" value="$${\alpha}_{t}$$" style="text;html=1;strokeColor=none;fillColor=none;align=center;verticalAlign=middle;whiteSpace=wrap;rounded=0;" parent="1" vertex="1">
          <mxGeometry x="328.48999999999995" y="445.30999999999995" width="21.75" height="17.5" as="geometry" />
        </mxCell>
        <mxCell id="pxTEWj7LgMfRWPrPXoyE-23" value="&lt;p style=&quot;line-height: 0%;&quot;&gt;&lt;font style=&quot;font-size: 12px;&quot; face=&quot;Times New Roman&quot;&gt;Modified Descent Step&lt;/font&gt;&lt;br&gt;&lt;/p&gt;" style="text;html=1;strokeColor=none;fillColor=none;align=center;verticalAlign=middle;whiteSpace=wrap;rounded=0;fontSize=7;" parent="1" vertex="1">
          <mxGeometry x="432.4100000000001" y="354.21000000000004" width="140" height="20" as="geometry" />
        </mxCell>
        <mxCell id="pxTEWj7LgMfRWPrPXoyE-24" value="&lt;b&gt;&lt;font&gt;Online Learning Module&lt;/font&gt;&lt;/b&gt;" style="text;html=1;strokeColor=none;fillColor=none;align=center;verticalAlign=middle;whiteSpace=wrap;rounded=0;fontColor=#000033;" parent="1" vertex="1">
          <mxGeometry x="428.55" y="500.49" width="145" height="30" as="geometry" />
        </mxCell>
        <mxCell id="pxTEWj7LgMfRWPrPXoyE-25" value="&lt;p style=&quot;line-height: 0%;&quot;&gt;&lt;font face=&quot;Times New Roman&quot; style=&quot;font-size: 11px;&quot;&gt;Lagrange-Dual&lt;/font&gt;&lt;/p&gt;" style="text;html=1;strokeColor=none;fillColor=none;align=center;verticalAlign=middle;whiteSpace=wrap;rounded=0;fontSize=7;" parent="1" vertex="1">
          <mxGeometry x="150.25" y="460.30000000000007" width="130" height="20" as="geometry" />
        </mxCell>
        <mxCell id="pxTEWj7LgMfRWPrPXoyE-26" value="&lt;p style=&quot;line-height: 0%;&quot;&gt;&lt;font face=&quot;Times New Roman&quot; style=&quot;font-size: 11px;&quot;&gt;Update&lt;/font&gt;&lt;/p&gt;" style="text;html=1;strokeColor=none;fillColor=none;align=center;verticalAlign=middle;whiteSpace=wrap;rounded=0;fontSize=7;" parent="1" vertex="1">
          <mxGeometry x="586.69" y="415.29999999999995" width="45" height="30" as="geometry" />
        </mxCell>
        <mxCell id="pxTEWj7LgMfRWPrPXoyE-42" style="edgeStyle=orthogonalEdgeStyle;rounded=0;orthogonalLoop=1;jettySize=auto;html=1;entryX=0.5;entryY=0;entryDx=0;entryDy=0;" parent="1" source="pxTEWj7LgMfRWPrPXoyE-28" edge="1">
          <mxGeometry relative="1" as="geometry">
            <mxPoint x="409.06500000000005" y="429.23" as="targetPoint" />
            <Array as="points">
              <mxPoint x="409.32" y="379.23" />
            </Array>
          </mxGeometry>
        </mxCell>
        <mxCell id="pxTEWj7LgMfRWPrPXoyE-28" value="" style="rounded=1;whiteSpace=wrap;html=1;strokeWidth=1;fontFamily=Times New Roman;fillColor=none;" parent="1" vertex="1">
          <mxGeometry x="444.82" y="354.21" width="115.18" height="52.02" as="geometry" />
        </mxCell>
        <mxCell id="pxTEWj7LgMfRWPrPXoyE-41" style="edgeStyle=orthogonalEdgeStyle;rounded=0;orthogonalLoop=1;jettySize=auto;html=1;entryX=1;entryY=0.5;entryDx=0;entryDy=0;" parent="1" source="pxTEWj7LgMfRWPrPXoyE-30" target="pxTEWj7LgMfRWPrPXoyE-28" edge="1">
          <mxGeometry relative="1" as="geometry">
            <Array as="points">
              <mxPoint x="626" y="380" />
            </Array>
          </mxGeometry>
        </mxCell>
        <mxCell id="pxTEWj7LgMfRWPrPXoyE-30" value="" style="rounded=1;whiteSpace=wrap;html=1;strokeWidth=1;fontFamily=Times New Roman;fillColor=none;" parent="1" vertex="1">
          <mxGeometry x="580" y="406.23" width="90" height="33.44" as="geometry" />
        </mxCell>
        <mxCell id="pxTEWj7LgMfRWPrPXoyE-31" value="&lt;b&gt;Reformulation&lt;/b&gt;" style="text;html=1;strokeColor=none;fillColor=none;align=center;verticalAlign=middle;whiteSpace=wrap;rounded=0;fontColor=#000033;" parent="1" vertex="1">
          <mxGeometry x="142.75" y="500" width="145" height="30" as="geometry" />
        </mxCell>
        <mxCell id="pxTEWj7LgMfRWPrPXoyE-32" value="" style="shape=curlyBracket;whiteSpace=wrap;html=1;rounded=1;labelPosition=left;verticalLabelPosition=middle;align=right;verticalAlign=middle;size=0.5;" parent="1" vertex="1">
          <mxGeometry x="350.23999999999995" y="441.8700000000001" width="15.62" height="27.03" as="geometry" />
        </mxCell>
        <mxCell id="pxTEWj7LgMfRWPrPXoyE-33" value="&lt;b&gt;&lt;font&gt;Randomized&amp;nbsp;&amp;nbsp;&lt;/font&gt;&lt;/b&gt;&lt;font&gt;&lt;b&gt;Rounding Module&lt;/b&gt;&lt;/font&gt;" style="text;html=1;strokeColor=none;fillColor=none;align=center;verticalAlign=middle;whiteSpace=wrap;rounded=0;fontColor=#000033;" parent="1" vertex="1">
          <mxGeometry x="310.18" y="470.49" width="206.75" height="30" as="geometry" />
        </mxCell>
        <mxCell id="pxTEWj7LgMfRWPrPXoyE-34" value="Previous Information" style="text;html=1;strokeColor=none;fillColor=none;align=center;verticalAlign=middle;whiteSpace=wrap;rounded=0;fontSize=11;fontFamily=Times New Roman;" parent="1" vertex="1">
          <mxGeometry x="510.16999999999996" y="466.24" width="126" height="15" as="geometry" />
        </mxCell>
        <mxCell id="pxTEWj7LgMfRWPrPXoyE-35" value="Rounding" style="text;html=1;strokeColor=none;fillColor=none;align=center;verticalAlign=middle;whiteSpace=wrap;rounded=0;fontSize=11;fontFamily=Times New Roman;" parent="1" vertex="1">
          <mxGeometry x="316.55" y="397.95000000000016" width="126" height="15" as="geometry" />
        </mxCell>
        <mxCell id="pxTEWj7LgMfRWPrPXoyE-36" value="Fractional Decisions" style="text;html=1;strokeColor=none;fillColor=none;align=center;verticalAlign=middle;whiteSpace=wrap;rounded=0;fontSize=11;fontFamily=Times New Roman;" parent="1" vertex="1">
          <mxGeometry x="436.82" y="383.23000000000013" width="126" height="15" as="geometry" />
        </mxCell>
        <mxCell id="pxTEWj7LgMfRWPrPXoyE-37" value="Learning From" style="text;html=1;strokeColor=none;fillColor=none;align=center;verticalAlign=middle;whiteSpace=wrap;rounded=0;fontSize=11;fontFamily=Times New Roman;" parent="1" vertex="1">
          <mxGeometry x="509.5" y="445.29999999999995" width="126" height="15" as="geometry" />
        </mxCell>
        <mxCell id="TXLG84Zdcfli_P3e0sqE-1" value="" style="rounded=1;whiteSpace=wrap;html=1;strokeWidth=1;fontFamily=Times New Roman;fillColor=#CCE5FF;dashed=1;strokeColor=#66B2FF;" vertex="1" parent="1">
          <mxGeometry x="320.18" y="580" width="349.82" height="180" as="geometry" />
        </mxCell>
        <mxCell id="TXLG84Zdcfli_P3e0sqE-3" value="" style="rounded=1;whiteSpace=wrap;html=1;strokeWidth=1;fontFamily=Times New Roman;fillColor=#FFE6CC;dashed=1;fontColor=#FFE6CC;strokeColor=#FFB366;" vertex="1" parent="1">
          <mxGeometry x="330" y="659.24" width="180" height="71.25" as="geometry" />
        </mxCell>
        <mxCell id="TXLG84Zdcfli_P3e0sqE-4" style="edgeStyle=orthogonalEdgeStyle;rounded=0;orthogonalLoop=1;jettySize=auto;html=1;" edge="1" parent="1" source="TXLG84Zdcfli_P3e0sqE-5">
          <mxGeometry relative="1" as="geometry">
            <mxPoint x="320" y="670" as="targetPoint" />
          </mxGeometry>
        </mxCell>
        <mxCell id="TXLG84Zdcfli_P3e0sqE-5" value="" style="rounded=1;whiteSpace=wrap;html=1;strokeWidth=1;fontFamily=Times New Roman;fillColor=#FFCCCC;dashed=1;strokeColor=#FF6666;" vertex="1" parent="1">
          <mxGeometry x="161.5" y="580" width="132.5" height="180" as="geometry" />
        </mxCell>
        <mxCell id="TXLG84Zdcfli_P3e0sqE-6" value="$$\mathbb{P}$$" style="text;html=1;strokeColor=none;fillColor=none;align=center;verticalAlign=middle;whiteSpace=wrap;rounded=0;" vertex="1" parent="1">
          <mxGeometry x="246.25" y="607.95" width="20" height="20" as="geometry" />
        </mxCell>
        <mxCell id="TXLG84Zdcfli_P3e0sqE-7" value="$$\tilde{\mathbb{P}}$$" style="text;html=1;strokeColor=none;fillColor=none;align=center;verticalAlign=middle;whiteSpace=wrap;rounded=0;" vertex="1" parent="1">
          <mxGeometry x="274" y="647.64" width="20" height="20" as="geometry" />
        </mxCell>
        <mxCell id="TXLG84Zdcfli_P3e0sqE-8" style="edgeStyle=orthogonalEdgeStyle;rounded=0;orthogonalLoop=1;jettySize=auto;html=1;entryX=0.5;entryY=0;entryDx=0;entryDy=0;" edge="1" parent="1" source="TXLG84Zdcfli_P3e0sqE-9" target="TXLG84Zdcfli_P3e0sqE-25">
          <mxGeometry relative="1" as="geometry" />
        </mxCell>
        <mxCell id="TXLG84Zdcfli_P3e0sqE-9" value="&lt;p style=&quot;line-height: 0%;&quot;&gt;&lt;font face=&quot;Times New Roman&quot; style=&quot;font-size: 11px;&quot;&gt;放缩到实数域求解&lt;/font&gt;&lt;/p&gt;" style="text;html=1;strokeColor=none;fillColor=none;align=center;verticalAlign=middle;whiteSpace=wrap;rounded=0;fontSize=7;" vertex="1" parent="1">
          <mxGeometry x="167.75" y="647.64" width="115" height="20" as="geometry" />
        </mxCell>
        <mxCell id="TXLG84Zdcfli_P3e0sqE-10" value="$$\mathbb{P}_c$$" style="text;html=1;strokeColor=none;fillColor=none;align=center;verticalAlign=middle;whiteSpace=wrap;rounded=0;" vertex="1" parent="1">
          <mxGeometry x="263" y="700.0000000000001" width="20" height="20" as="geometry" />
        </mxCell>
        <mxCell id="TXLG84Zdcfli_P3e0sqE-15" style="edgeStyle=orthogonalEdgeStyle;rounded=0;orthogonalLoop=1;jettySize=auto;html=1;" edge="1" parent="1" source="TXLG84Zdcfli_P3e0sqE-16">
          <mxGeometry relative="1" as="geometry">
            <mxPoint x="225.25" y="651.83" as="targetPoint" />
          </mxGeometry>
        </mxCell>
        <mxCell id="TXLG84Zdcfli_P3e0sqE-16" value="原始问题" style="text;html=1;strokeColor=none;fillColor=none;align=center;verticalAlign=middle;whiteSpace=wrap;rounded=0;fontFamily=Times New Roman;" vertex="1" parent="1">
          <mxGeometry x="175.25" y="603.27" width="99.75" height="28.12" as="geometry" />
        </mxCell>
        <mxCell id="TXLG84Zdcfli_P3e0sqE-17" value="推理模型选择" style="text;html=1;strokeColor=none;fillColor=none;align=center;verticalAlign=middle;whiteSpace=wrap;rounded=0;fontSize=11;fontFamily=Times New Roman;" vertex="1" parent="1">
          <mxGeometry x="365.85999999999996" y="688.6000000000001" width="110" height="20" as="geometry" />
        </mxCell>
        <mxCell id="TXLG84Zdcfli_P3e0sqE-18" value="训练负载调度" style="text;html=1;strokeColor=none;fillColor=none;align=center;verticalAlign=middle;whiteSpace=wrap;rounded=0;fontSize=11;fontFamily=Times New Roman;" vertex="1" parent="1">
          <mxGeometry x="369.99999999999994" y="663.47" width="100" height="15" as="geometry" />
        </mxCell>
        <mxCell id="TXLG84Zdcfli_P3e0sqE-19" value="$$\tilde{\mathbf{x}}_{t}$$" style="text;html=1;strokeColor=none;fillColor=none;align=center;verticalAlign=middle;whiteSpace=wrap;rounded=0;fontFamily=Times New Roman;" vertex="1" parent="1">
          <mxGeometry x="459.9999999999999" y="661.71" width="20" height="16.25" as="geometry" />
        </mxCell>
        <mxCell id="TXLG84Zdcfli_P3e0sqE-20" value="$$\mathbf{y}_{t}$$" style="text;html=1;strokeColor=none;fillColor=none;align=center;verticalAlign=middle;whiteSpace=wrap;rounded=0;fontFamily=Times New Roman;" vertex="1" parent="1">
          <mxGeometry x="456.98999999999995" y="689.8500000000001" width="25" height="17.5" as="geometry" />
        </mxCell>
        <mxCell id="TXLG84Zdcfli_P3e0sqE-21" style="edgeStyle=orthogonalEdgeStyle;rounded=0;orthogonalLoop=1;jettySize=auto;html=1;exitX=0.5;exitY=1;exitDx=0;exitDy=0;fontFamily=Times New Roman;" edge="1" parent="1" source="TXLG84Zdcfli_P3e0sqE-20" target="TXLG84Zdcfli_P3e0sqE-20">
          <mxGeometry relative="1" as="geometry" />
        </mxCell>
        <mxCell id="TXLG84Zdcfli_P3e0sqE-22" value="$${\alpha}_{t}$$" style="text;html=1;strokeColor=none;fillColor=none;align=center;verticalAlign=middle;whiteSpace=wrap;rounded=0;" vertex="1" parent="1">
          <mxGeometry x="338.48999999999995" y="675.31" width="21.75" height="17.5" as="geometry" />
        </mxCell>
        <mxCell id="TXLG84Zdcfli_P3e0sqE-24" value="&lt;b&gt;&lt;font&gt;基于鞍点的在线学习算法&lt;/font&gt;&lt;/b&gt;" style="text;html=1;strokeColor=none;fillColor=none;align=center;verticalAlign=middle;whiteSpace=wrap;rounded=0;fontColor=#000033;" vertex="1" parent="1">
          <mxGeometry x="423.55" y="730.49" width="145" height="30" as="geometry" />
        </mxCell>
        <mxCell id="TXLG84Zdcfli_P3e0sqE-25" value="&lt;p style=&quot;line-height: 0%;&quot;&gt;&lt;font face=&quot;Times New Roman&quot; style=&quot;font-size: 11px;&quot;&gt;拉格朗日对偶&lt;/font&gt;&lt;/p&gt;" style="text;html=1;strokeColor=none;fillColor=none;align=center;verticalAlign=middle;whiteSpace=wrap;rounded=0;fontSize=7;" vertex="1" parent="1">
          <mxGeometry x="160" y="700.0000000000001" width="130" height="20" as="geometry" />
        </mxCell>
        <mxCell id="TXLG84Zdcfli_P3e0sqE-27" style="edgeStyle=orthogonalEdgeStyle;rounded=0;orthogonalLoop=1;jettySize=auto;html=1;entryX=0.5;entryY=0;entryDx=0;entryDy=0;" edge="1" parent="1" source="TXLG84Zdcfli_P3e0sqE-28">
          <mxGeometry relative="1" as="geometry">
            <mxPoint x="419.06500000000005" y="659.23" as="targetPoint" />
            <Array as="points">
              <mxPoint x="419.32" y="609.23" />
            </Array>
          </mxGeometry>
        </mxCell>
        <mxCell id="TXLG84Zdcfli_P3e0sqE-29" style="edgeStyle=orthogonalEdgeStyle;rounded=0;orthogonalLoop=1;jettySize=auto;html=1;entryX=1;entryY=0.5;entryDx=0;entryDy=0;" edge="1" parent="1" source="TXLG84Zdcfli_P3e0sqE-30" target="TXLG84Zdcfli_P3e0sqE-28">
          <mxGeometry relative="1" as="geometry">
            <Array as="points">
              <mxPoint x="626" y="610" />
            </Array>
          </mxGeometry>
        </mxCell>
        <mxCell id="TXLG84Zdcfli_P3e0sqE-31" value="&lt;b&gt;问题重构&lt;/b&gt;" style="text;html=1;strokeColor=none;fillColor=none;align=center;verticalAlign=middle;whiteSpace=wrap;rounded=0;fontColor=#000033;" vertex="1" parent="1">
          <mxGeometry x="152.75" y="730" width="145" height="30" as="geometry" />
        </mxCell>
        <mxCell id="TXLG84Zdcfli_P3e0sqE-32" value="" style="shape=curlyBracket;whiteSpace=wrap;html=1;rounded=1;labelPosition=left;verticalLabelPosition=middle;align=right;verticalAlign=middle;size=0.5;" vertex="1" parent="1">
          <mxGeometry x="360.23999999999995" y="671.8700000000001" width="15.62" height="27.03" as="geometry" />
        </mxCell>
        <mxCell id="TXLG84Zdcfli_P3e0sqE-33" value="&lt;b&gt;基于资源预留的随机舍入算法&lt;/b&gt;" style="text;html=1;strokeColor=none;fillColor=none;align=center;verticalAlign=middle;whiteSpace=wrap;rounded=0;fontColor=#000033;" vertex="1" parent="1">
          <mxGeometry x="320.18" y="704.49" width="206.75" height="30" as="geometry" />
        </mxCell>
        <mxCell id="TXLG84Zdcfli_P3e0sqE-35" value="两阶段&lt;div&gt;随机舍入&lt;/div&gt;" style="text;html=1;strokeColor=none;fillColor=none;align=center;verticalAlign=middle;whiteSpace=wrap;rounded=0;fontSize=11;fontFamily=Times New Roman;" vertex="1" parent="1">
          <mxGeometry x="340" y="610" width="76" height="32.95" as="geometry" />
        </mxCell>
        <mxCell id="TXLG84Zdcfli_P3e0sqE-48" value="" style="group" vertex="1" connectable="0" parent="1">
          <mxGeometry x="429" y="583" width="140" height="50" as="geometry" />
        </mxCell>
        <mxCell id="TXLG84Zdcfli_P3e0sqE-28" value="" style="rounded=1;whiteSpace=wrap;html=1;strokeWidth=1;fontFamily=Times New Roman;fillColor=none;" vertex="1" parent="TXLG84Zdcfli_P3e0sqE-48">
          <mxGeometry x="18" y="7" width="115.18" height="40" as="geometry" />
        </mxCell>
        <mxCell id="TXLG84Zdcfli_P3e0sqE-46" value="" style="group" vertex="1" connectable="0" parent="TXLG84Zdcfli_P3e0sqE-48">
          <mxGeometry width="140" height="50" as="geometry" />
        </mxCell>
        <mxCell id="TXLG84Zdcfli_P3e0sqE-11" value="$$\tilde{\alpha}_{t+1}$$" style="text;html=1;strokeColor=none;fillColor=none;align=center;verticalAlign=middle;whiteSpace=wrap;rounded=0;" vertex="1" parent="TXLG84Zdcfli_P3e0sqE-46">
          <mxGeometry x="100" y="17" width="30" height="30" as="geometry" />
        </mxCell>
        <mxCell id="TXLG84Zdcfli_P3e0sqE-23" value="&lt;div style=&quot;line-height: 90%;&quot;&gt;&lt;p&gt;&lt;font style=&quot;font-size: 12px;&quot; face=&quot;Times New Roman&quot;&gt;修正的梯度下降&lt;/font&gt;&lt;br&gt;&lt;/p&gt;&lt;p&gt;&lt;span style=&quot;font-family: &amp;quot;Times New Roman&amp;quot;; font-size: 11px;&quot;&gt;更新实数域解&amp;nbsp; &amp;nbsp;&lt;/span&gt;&lt;/p&gt;&lt;/div&gt;" style="text;html=1;strokeColor=none;fillColor=none;align=center;verticalAlign=middle;whiteSpace=wrap;rounded=0;fontSize=7;" vertex="1" parent="TXLG84Zdcfli_P3e0sqE-46">
          <mxGeometry width="140" height="50" as="geometry" />
        </mxCell>
        <mxCell id="TXLG84Zdcfli_P3e0sqE-49" value="" style="group" vertex="1" connectable="0" parent="1">
          <mxGeometry x="573.0000000000001" y="630" width="100" height="40" as="geometry" />
        </mxCell>
        <mxCell id="TXLG84Zdcfli_P3e0sqE-13" value="$$\lambda_{t+1}$$" style="text;html=1;strokeColor=none;fillColor=none;align=center;verticalAlign=middle;whiteSpace=wrap;rounded=0;fontSize=11;fontFamily=Times New Roman;" vertex="1" parent="TXLG84Zdcfli_P3e0sqE-49">
          <mxGeometry x="49.999999999999886" y="10" width="30" height="30" as="geometry" />
        </mxCell>
        <mxCell id="TXLG84Zdcfli_P3e0sqE-14" value="对偶上升" style="text;html=1;strokeColor=none;fillColor=none;align=center;verticalAlign=middle;whiteSpace=wrap;rounded=0;fontSize=11;fontFamily=Times New Roman;" vertex="1" parent="TXLG84Zdcfli_P3e0sqE-49">
          <mxGeometry y="2.2737367544323206e-13" width="100" height="20" as="geometry" />
        </mxCell>
        <mxCell id="TXLG84Zdcfli_P3e0sqE-26" value="&lt;p style=&quot;line-height: 0%;&quot;&gt;&lt;font face=&quot;Times New Roman&quot; style=&quot;font-size: 11px;&quot;&gt;更新&lt;/font&gt;&lt;/p&gt;" style="text;html=1;strokeColor=none;fillColor=none;align=center;verticalAlign=middle;whiteSpace=wrap;rounded=0;fontSize=7;" vertex="1" parent="TXLG84Zdcfli_P3e0sqE-49">
          <mxGeometry x="19.999999999999886" y="10" width="45" height="30" as="geometry" />
        </mxCell>
        <mxCell id="TXLG84Zdcfli_P3e0sqE-30" value="" style="rounded=1;whiteSpace=wrap;html=1;strokeWidth=1;fontFamily=Times New Roman;fillColor=none;" vertex="1" parent="TXLG84Zdcfli_P3e0sqE-49">
          <mxGeometry x="9.999999999999886" width="80" height="40" as="geometry" />
        </mxCell>
        <mxCell id="TXLG84Zdcfli_P3e0sqE-50" value="" style="group" vertex="1" connectable="0" parent="1">
          <mxGeometry x="509.5" y="675.3" width="126.66999999999996" height="35.940000000000055" as="geometry" />
        </mxCell>
        <mxCell id="TXLG84Zdcfli_P3e0sqE-2" style="edgeStyle=orthogonalEdgeStyle;rounded=0;orthogonalLoop=1;jettySize=auto;html=1;entryX=0.5;entryY=1;entryDx=0;entryDy=0;" edge="1" parent="TXLG84Zdcfli_P3e0sqE-50" source="TXLG84Zdcfli_P3e0sqE-3" target="TXLG84Zdcfli_P3e0sqE-30">
          <mxGeometry relative="1" as="geometry" />
        </mxCell>
        <mxCell id="TXLG84Zdcfli_P3e0sqE-34" value="学习" style="text;html=1;strokeColor=none;fillColor=none;align=center;verticalAlign=middle;whiteSpace=wrap;rounded=0;fontSize=11;fontFamily=Times New Roman;" vertex="1" parent="TXLG84Zdcfli_P3e0sqE-50">
          <mxGeometry x="0.6699999999999591" y="20.940000000000055" width="126" height="15" as="geometry" />
        </mxCell>
        <mxCell id="TXLG84Zdcfli_P3e0sqE-37" value="从历史决策" style="text;html=1;strokeColor=none;fillColor=none;align=center;verticalAlign=middle;whiteSpace=wrap;rounded=0;fontSize=11;fontFamily=Times New Roman;" vertex="1" parent="TXLG84Zdcfli_P3e0sqE-50">
          <mxGeometry width="126" height="15" as="geometry" />
        </mxCell>
      </root>
    </mxGraphModel>
  </diagram>
</mxfile>
